<svg width="17" height="17" viewBox="0 0 17 17" fill="none" xmlns="http://www.w3.org/2000/svg">
<g clip-path="url(#clip0_1_1065)">
<path d="M11.7783 2.37231H3.29395C2.32477 2.37231 1.53613 3.16095 1.53613 4.13013V12.6145C1.53613 13.5837 2.32477 14.3723 3.29395 14.3723H11.7783C12.7475 14.3723 13.5361 13.5837 13.5361 12.6145V4.13013C13.5361 3.16095 12.7475 2.37231 11.7783 2.37231ZM7.55957 11.5129C5.81485 11.5129 4.39551 10.0936 4.39551 8.34888C4.39551 6.60416 5.81485 5.18481 7.55957 5.18481C9.30429 5.18481 10.7236 6.60416 10.7236 8.34888C10.7236 10.0936 9.30429 11.5129 7.55957 11.5129ZM11.0752 5.88794C10.4937 5.88794 10.0205 5.41479 10.0205 4.83325C10.0205 4.25171 10.4937 3.77856 11.0752 3.77856C11.6567 3.77856 12.1299 4.25171 12.1299 4.83325C12.1299 5.41479 11.6567 5.88794 11.0752 5.88794Z" fill="#0096FF"/>
<path d="M11.0752 4.48169C10.8812 4.48169 10.7236 4.63925 10.7236 4.83325C10.7236 5.02725 10.8812 5.18481 11.0752 5.18481C11.2692 5.18481 11.4268 5.02725 11.4268 4.83325C11.4268 4.63925 11.2692 4.48169 11.0752 4.48169Z" fill="#0096FF"/>
<path d="M7.55957 5.88794C6.20276 5.88794 5.09863 6.99207 5.09863 8.34888C5.09863 9.70569 6.20276 10.8098 7.55957 10.8098C8.91638 10.8098 10.0205 9.70569 10.0205 8.34888C10.0205 6.99207 8.91638 5.88794 7.55957 5.88794Z" fill="#0096FF"/>
</g>
<defs>
<clipPath id="clip0_1_1065">
<rect width="12" height="12" fill="white" transform="translate(1.53613 2.37231)"/>
</clipPath>
</defs>
</svg>
