<svg width="17" height="14" viewBox="0 0 17 14" fill="none" xmlns="http://www.w3.org/2000/svg">
<path d="M16.2808 2.01112C15.6789 2.28236 15.0376 2.46215 14.3689 2.54944C15.0568 2.12752 15.5818 1.46449 15.8286 0.665316C15.1873 1.05815 14.4792 1.33562 13.7245 1.49047C13.1155 0.824319 12.2476 0.411743 11.3007 0.411743C9.46365 0.411743 7.98469 1.94357 7.98469 3.82146C7.98469 4.09167 8.00694 4.35147 8.06157 4.59881C5.30293 4.46059 2.86194 3.10232 1.22214 1.0332C0.935855 1.54347 0.767929 2.12752 0.767929 2.75625C0.767929 3.93682 1.35972 4.98333 2.24183 5.5892C1.70872 5.57881 1.18572 5.4198 0.742639 5.16935C0.742639 5.17974 0.742639 5.19325 0.742639 5.20676C0.742639 6.8633 1.89283 8.23924 3.40112 8.55621C3.13103 8.63207 2.83665 8.66844 2.53115 8.66844C2.31871 8.66844 2.10425 8.65597 1.90294 8.61025C2.33287 9.96021 3.55287 10.9527 5.0035 10.9849C3.87455 11.8921 2.44112 12.4388 0.889321 12.4388C0.617201 12.4388 0.356208 12.4263 0.0952148 12.392C1.56507 13.3658 3.30705 13.9218 5.18559 13.9218C11.2916 13.9218 14.6299 8.7256 14.6299 4.22157C14.6299 4.07088 14.6248 3.92539 14.6178 3.78093C15.2763 3.30081 15.8296 2.70117 16.2808 2.01112Z" fill="#0096FF"/>
</svg>
